<svg xmlns="http://www.w3.org/2000/svg" xmlns:xlink="http://www.w3.org/1999/xlink" width="500" zoomAndPan="magnify" viewBox="0 0 375 374.999991" height="500" preserveAspectRatio="xMidYMid meet" version="1.0"><defs><g/><clipPath id="9dc16e3480"><path d="M 57 16 L 317.832031 16 L 317.832031 358.726562 L 57 358.726562 Z M 57 16 " clip-rule="nonzero"/></clipPath></defs><path fill="#ff7300" d="M 226.425781 212.132812 L 140.296875 185.597656 L 166.746094 271.8125 L 186.914062 251.644531 L 215.683594 280.410156 L 235.023438 261.066406 L 206.257812 232.300781 Z M 226.425781 212.132812 " fill-opacity="1" fill-rule="nonzero"/><g clip-path="url(#9dc16e3480)"><path fill="#000000" d="M 258.5 97.976562 L 258.5 86.980469 C 258.5 47.882812 226.675781 16.140625 187.660156 16.140625 C 148.644531 16.140625 116.820312 47.964844 116.820312 86.980469 L 116.820312 97.976562 L 57.222656 97.976562 L 57.222656 359.265625 L 318.097656 359.265625 L 318.097656 97.976562 Z M 141.617188 86.898438 C 141.617188 61.523438 162.28125 40.859375 187.660156 40.859375 C 213.035156 40.859375 233.703125 61.523438 233.703125 86.898438 L 233.703125 97.894531 L 141.617188 97.894531 Z M 293.300781 334.46875 L 82.019531 334.46875 L 82.019531 122.773438 L 116.820312 122.773438 L 116.820312 136.332031 L 141.617188 136.332031 L 141.617188 122.773438 L 233.785156 122.773438 L 233.785156 136.332031 L 258.582031 136.332031 L 258.582031 122.773438 L 293.382812 122.773438 L 293.382812 334.46875 Z M 293.300781 334.46875 " fill-opacity="1" fill-rule="nonzero"/></g><g fill="#ff7300" fill-opacity="1"><g transform="translate(178.587487, 226.778834)"><g><path d="M 3.5625 0.171875 C 2.707031 0.171875 2.039062 -0.0507812 1.5625 -0.5 C 1.09375 -0.945312 0.859375 -1.582031 0.859375 -2.40625 C 0.859375 -2.914062 0.960938 -3.34375 1.171875 -3.6875 C 1.378906 -4.039062 1.703125 -4.328125 2.140625 -4.546875 C 2.585938 -4.773438 3.171875 -4.945312 3.890625 -5.0625 C 4.515625 -5.164062 4.988281 -5.28125 5.3125 -5.40625 C 5.632812 -5.539062 5.851562 -5.6875 5.96875 -5.84375 C 6.082031 -6.007812 6.140625 -6.21875 6.140625 -6.46875 C 6.140625 -6.851562 6.003906 -7.148438 5.734375 -7.359375 C 5.460938 -7.566406 5.03125 -7.671875 4.4375 -7.671875 C 3.882812 -7.671875 3.40625 -7.5625 3 -7.34375 C 2.601562 -7.132812 2.238281 -6.816406 1.90625 -6.390625 L 1.75 -6.390625 L 1.125 -7.265625 C 1.488281 -7.734375 1.953125 -8.101562 2.515625 -8.375 C 3.078125 -8.644531 3.71875 -8.78125 4.4375 -8.78125 C 5.457031 -8.78125 6.207031 -8.554688 6.6875 -8.109375 C 7.164062 -7.671875 7.40625 -7.054688 7.40625 -6.265625 L 7.40625 -1.703125 C 7.40625 -1.222656 7.609375 -0.984375 8.015625 -0.984375 C 8.148438 -0.984375 8.28125 -1.003906 8.40625 -1.046875 L 8.515625 -1.015625 L 8.671875 -0.140625 C 8.578125 -0.078125 8.453125 -0.03125 8.296875 0 C 8.140625 0.0390625 7.984375 0.0625 7.828125 0.0625 C 7.347656 0.0625 6.988281 -0.0390625 6.75 -0.25 C 6.507812 -0.457031 6.351562 -0.765625 6.28125 -1.171875 L 6.125 -1.1875 C 5.875 -0.738281 5.539062 -0.398438 5.125 -0.171875 C 4.707031 0.0546875 4.1875 0.171875 3.5625 0.171875 Z M 3.84375 -0.859375 C 4.320312 -0.859375 4.734375 -0.96875 5.078125 -1.1875 C 5.429688 -1.40625 5.703125 -1.710938 5.890625 -2.109375 C 6.078125 -2.515625 6.171875 -2.984375 6.171875 -3.515625 L 6.171875 -4.609375 L 6.03125 -4.640625 C 5.832031 -4.503906 5.59375 -4.390625 5.3125 -4.296875 C 5.039062 -4.203125 4.660156 -4.117188 4.171875 -4.046875 C 3.671875 -3.984375 3.269531 -3.878906 2.96875 -3.734375 C 2.675781 -3.597656 2.46875 -3.421875 2.34375 -3.203125 C 2.21875 -2.984375 2.15625 -2.71875 2.15625 -2.40625 C 2.15625 -1.894531 2.300781 -1.507812 2.59375 -1.25 C 2.894531 -0.988281 3.3125 -0.859375 3.84375 -0.859375 Z M 3.84375 -0.859375 "/></g></g></g></svg>