<svg xmlns="http://www.w3.org/2000/svg" xmlns:xlink="http://www.w3.org/1999/xlink" width="500" zoomAndPan="magnify" viewBox="0 0 375 149.999998" height="200" preserveAspectRatio="xMidYMid meet" version="1.0"><defs><g/><clipPath id="6f00d4da2b"><path d="M 15 15 L 105 15 L 105 133.5 L 15 133.5 Z M 15 15 " clip-rule="nonzero"/></clipPath></defs><path fill="#ff7300" d="M 73.523438 82.683594 L 43.800781 73.53125 L 52.929688 103.277344 L 59.886719 96.320312 L 69.8125 106.246094 L 76.488281 99.570312 L 66.5625 89.644531 Z M 73.523438 82.683594 " fill-opacity="1" fill-rule="nonzero"/><g clip-path="url(#6f00d4da2b)"><path fill="#000000" d="M 84.589844 43.296875 L 84.589844 39.5 C 84.589844 26.011719 73.609375 15.058594 60.144531 15.058594 C 46.683594 15.058594 35.699219 26.039062 35.699219 39.5 L 35.699219 43.296875 L 15.136719 43.296875 L 15.136719 133.457031 L 105.15625 133.457031 L 105.15625 43.296875 Z M 44.257812 39.472656 C 44.257812 30.714844 51.386719 23.585938 60.144531 23.585938 C 68.902344 23.585938 76.03125 30.714844 76.03125 39.472656 L 76.03125 43.265625 L 44.257812 43.265625 Z M 96.597656 124.898438 L 23.691406 124.898438 L 23.691406 51.851562 L 35.699219 51.851562 L 35.699219 56.53125 L 44.257812 56.53125 L 44.257812 51.851562 L 76.0625 51.851562 L 76.0625 56.53125 L 84.617188 56.53125 L 84.617188 51.851562 L 96.625 51.851562 L 96.625 124.898438 Z M 96.597656 124.898438 " fill-opacity="1" fill-rule="nonzero"/></g><g fill="#000000" fill-opacity="1"><g transform="translate(110.708478, 88.874997)"><g><path d="M 29.484375 -36.65625 L 29.484375 -29.265625 L 19.265625 -29.265625 L 19.265625 0 L 11.3125 0 L 11.3125 -29.265625 L 1.15625 -29.265625 L 1.15625 -36.65625 Z M 29.484375 -36.65625 "/></g></g></g><g fill="#000000" fill-opacity="1"><g transform="translate(141.279479, 88.874997)"><g><path d="M 18.109375 -28.4375 L 20.625 -28.4375 L 20.625 -21.203125 L 17.328125 -21.203125 C 15.160156 -21.203125 13.613281 -20.695312 12.6875 -19.6875 C 11.769531 -18.675781 11.3125 -17.019531 11.3125 -14.71875 L 11.3125 0 L 3.671875 0 L 3.671875 -28.28125 L 8.59375 -28.28125 L 9.953125 -24.8125 C 11.867188 -27.226562 14.585938 -28.4375 18.109375 -28.4375 Z M 18.109375 -28.4375 "/></g></g></g><g fill="#000000" fill-opacity="1"><g transform="translate(162.584955, 88.874997)"><g><path d="M 16.59375 0.78125 C 13.945312 0.78125 11.617188 0.25 9.609375 -0.8125 C 7.597656 -1.875 6.039062 -3.351562 4.9375 -5.25 C 3.84375 -7.15625 3.296875 -9.382812 3.296875 -11.9375 L 3.296875 -28.28125 L 10.9375 -28.28125 L 10.9375 -12.828125 C 10.9375 -10.804688 11.429688 -9.226562 12.421875 -8.09375 C 13.421875 -6.957031 14.8125 -6.390625 16.59375 -6.390625 C 18.375 -6.390625 19.753906 -6.960938 20.734375 -8.109375 C 21.710938 -9.265625 22.203125 -10.835938 22.203125 -12.828125 L 22.203125 -28.28125 L 29.84375 -28.28125 L 29.84375 -11.9375 C 29.84375 -9.382812 29.289062 -7.15625 28.1875 -5.25 C 27.09375 -3.351562 25.550781 -1.875 23.5625 -0.8125 C 21.570312 0.25 19.25 0.78125 16.59375 0.78125 Z M 16.59375 0.78125 "/></g></g></g><g fill="#000000" fill-opacity="1"><g transform="translate(195.720989, 88.874997)"><g><path d="M 31.09375 -14.234375 C 31.09375 -13.503906 31.039062 -12.753906 30.9375 -11.984375 L 9.578125 -11.984375 C 9.890625 -10.066406 10.65625 -8.59375 11.875 -7.5625 C 13.101562 -6.53125 14.644531 -6.015625 16.5 -6.015625 C 17.820312 -6.015625 19.003906 -6.300781 20.046875 -6.875 C 21.097656 -7.457031 21.90625 -8.253906 22.46875 -9.265625 L 30.53125 -9.265625 C 29.476562 -6.191406 27.695312 -3.75 25.1875 -1.9375 C 22.675781 -0.125 19.78125 0.78125 16.5 0.78125 C 13.695312 0.78125 11.1875 0.128906 8.96875 -1.171875 C 6.757812 -2.484375 5.015625 -4.265625 3.734375 -6.515625 C 2.460938 -8.765625 1.828125 -11.304688 1.828125 -14.140625 C 1.828125 -16.960938 2.460938 -19.5 3.734375 -21.75 C 5.015625 -24 6.757812 -25.78125 8.96875 -27.09375 C 11.1875 -28.40625 13.695312 -29.0625 16.5 -29.0625 C 19.394531 -29.0625 21.941406 -28.390625 24.140625 -27.046875 C 26.335938 -25.703125 28.046875 -23.910156 29.265625 -21.671875 C 30.484375 -19.441406 31.09375 -16.960938 31.09375 -14.234375 Z M 16.5 -22.5625 C 14.78125 -22.5625 13.335938 -22.085938 12.171875 -21.140625 C 11.003906 -20.203125 10.210938 -18.894531 9.796875 -17.21875 L 23.453125 -17.21875 C 22.335938 -20.78125 20.019531 -22.5625 16.5 -22.5625 Z M 16.5 -22.5625 "/></g></g></g><g fill="#000000" fill-opacity="1"><g transform="translate(228.595285, 88.874997)"><g><path d="M 27.015625 -28.28125 L 32.046875 -28.28125 L 32.046875 10.203125 L 24.40625 10.203125 L 24.40625 -1.515625 C 23.320312 -0.785156 22.113281 -0.210938 20.78125 0.203125 C 19.457031 0.628906 18.082031 0.84375 16.65625 0.84375 C 13.789062 0.84375 11.238281 0.195312 9 -1.09375 C 6.769531 -2.382812 5.015625 -4.164062 3.734375 -6.4375 C 2.460938 -8.707031 1.828125 -11.273438 1.828125 -14.140625 C 1.828125 -17.003906 2.460938 -19.5625 3.734375 -21.8125 C 5.015625 -24.0625 6.769531 -25.832031 9 -27.125 C 11.238281 -28.414062 13.789062 -29.0625 16.65625 -29.0625 C 18.394531 -29.0625 20.03125 -28.765625 21.5625 -28.171875 C 23.101562 -27.578125 24.484375 -26.753906 25.703125 -25.703125 Z M 17.21875 -6.390625 C 18.726562 -6.390625 20.054688 -6.726562 21.203125 -7.40625 C 22.359375 -8.09375 23.273438 -9.019531 23.953125 -10.1875 C 24.628906 -11.351562 24.96875 -12.671875 24.96875 -14.140625 C 24.96875 -15.609375 24.628906 -16.925781 23.953125 -18.09375 C 23.273438 -19.257812 22.359375 -20.179688 21.203125 -20.859375 C 20.054688 -21.546875 18.726562 -21.890625 17.21875 -21.890625 C 15.757812 -21.890625 14.453125 -21.546875 13.296875 -20.859375 C 12.148438 -20.179688 11.234375 -19.257812 10.546875 -18.09375 C 9.867188 -16.925781 9.53125 -15.609375 9.53125 -14.140625 C 9.53125 -12.671875 9.867188 -11.351562 10.546875 -10.1875 C 11.234375 -9.019531 12.148438 -8.09375 13.296875 -7.40625 C 14.453125 -6.726562 15.757812 -6.390625 17.21875 -6.390625 Z M 17.21875 -6.390625 "/></g></g></g><g fill="#000000" fill-opacity="1"><g transform="translate(264.296351, 88.874997)"><g><path d="M 16.59375 0.78125 C 13.945312 0.78125 11.617188 0.25 9.609375 -0.8125 C 7.597656 -1.875 6.039062 -3.351562 4.9375 -5.25 C 3.84375 -7.15625 3.296875 -9.382812 3.296875 -11.9375 L 3.296875 -28.28125 L 10.9375 -28.28125 L 10.9375 -12.828125 C 10.9375 -10.804688 11.429688 -9.226562 12.421875 -8.09375 C 13.421875 -6.957031 14.8125 -6.390625 16.59375 -6.390625 C 18.375 -6.390625 19.753906 -6.960938 20.734375 -8.109375 C 21.710938 -9.265625 22.203125 -10.835938 22.203125 -12.828125 L 22.203125 -28.28125 L 29.84375 -28.28125 L 29.84375 -11.9375 C 29.84375 -9.382812 29.289062 -7.15625 28.1875 -5.25 C 27.09375 -3.351562 25.550781 -1.875 23.5625 -0.8125 C 21.570312 0.25 19.25 0.78125 16.59375 0.78125 Z M 16.59375 0.78125 "/></g></g></g><g fill="#000000" fill-opacity="1"><g transform="translate(297.432385, 88.874997)"><g><path d="M 31.09375 -14.234375 C 31.09375 -13.503906 31.039062 -12.753906 30.9375 -11.984375 L 9.578125 -11.984375 C 9.890625 -10.066406 10.65625 -8.59375 11.875 -7.5625 C 13.101562 -6.53125 14.644531 -6.015625 16.5 -6.015625 C 17.820312 -6.015625 19.003906 -6.300781 20.046875 -6.875 C 21.097656 -7.457031 21.90625 -8.253906 22.46875 -9.265625 L 30.53125 -9.265625 C 29.476562 -6.191406 27.695312 -3.75 25.1875 -1.9375 C 22.675781 -0.125 19.78125 0.78125 16.5 0.78125 C 13.695312 0.78125 11.1875 0.128906 8.96875 -1.171875 C 6.757812 -2.484375 5.015625 -4.265625 3.734375 -6.515625 C 2.460938 -8.765625 1.828125 -11.304688 1.828125 -14.140625 C 1.828125 -16.960938 2.460938 -19.5 3.734375 -21.75 C 5.015625 -24 6.757812 -25.78125 8.96875 -27.09375 C 11.1875 -28.40625 13.695312 -29.0625 16.5 -29.0625 C 19.394531 -29.0625 21.941406 -28.390625 24.140625 -27.046875 C 26.335938 -25.703125 28.046875 -23.910156 29.265625 -21.671875 C 30.484375 -19.441406 31.09375 -16.960938 31.09375 -14.234375 Z M 16.5 -22.5625 C 14.78125 -22.5625 13.335938 -22.085938 12.171875 -21.140625 C 11.003906 -20.203125 10.210938 -18.894531 9.796875 -17.21875 L 23.453125 -17.21875 C 22.335938 -20.78125 20.019531 -22.5625 16.5 -22.5625 Z M 16.5 -22.5625 "/></g></g></g><g fill="#000000" fill-opacity="1"><g transform="translate(330.30667, 88.874997)"><g><path d="M 13.71875 0.78125 C 11.34375 0.78125 9.265625 0.363281 7.484375 -0.46875 C 5.703125 -1.3125 4.3125 -2.488281 3.3125 -4 C 2.320312 -5.519531 1.828125 -7.289062 1.828125 -9.3125 L 9.265625 -9.3125 C 9.296875 -8.0625 9.75 -7.117188 10.625 -6.484375 C 11.5 -5.859375 12.617188 -5.546875 13.984375 -5.546875 C 15.066406 -5.546875 16.007812 -5.78125 16.8125 -6.25 C 17.613281 -6.726562 18.015625 -7.4375 18.015625 -8.375 C 18.015625 -9.351562 17.476562 -10.039062 16.40625 -10.4375 C 15.34375 -10.84375 14.0625 -11.171875 12.5625 -11.421875 C 11.445312 -11.585938 10.285156 -11.828125 9.078125 -12.140625 C 7.878906 -12.460938 6.769531 -12.921875 5.75 -13.515625 C 4.738281 -14.109375 3.910156 -14.925781 3.265625 -15.96875 C 2.617188 -17.019531 2.296875 -18.378906 2.296875 -20.046875 C 2.296875 -21.828125 2.773438 -23.398438 3.734375 -24.765625 C 4.703125 -26.128906 6.03125 -27.1875 7.71875 -27.9375 C 9.414062 -28.6875 11.414062 -29.0625 13.71875 -29.0625 C 15.988281 -29.0625 17.96875 -28.664062 19.65625 -27.875 C 21.351562 -27.09375 22.671875 -25.992188 23.609375 -24.578125 C 24.554688 -23.171875 25.03125 -21.523438 25.03125 -19.640625 L 17.75 -19.640625 C 17.75 -20.753906 17.375 -21.585938 16.625 -22.140625 C 15.875 -22.703125 14.835938 -22.984375 13.515625 -22.984375 C 12.328125 -22.984375 11.398438 -22.726562 10.734375 -22.21875 C 10.066406 -21.71875 9.734375 -21.066406 9.734375 -20.265625 C 9.734375 -19.316406 10.253906 -18.664062 11.296875 -18.3125 C 12.347656 -17.96875 13.609375 -17.675781 15.078125 -17.4375 C 16.234375 -17.226562 17.421875 -16.972656 18.640625 -16.671875 C 19.859375 -16.378906 20.988281 -15.9375 22.03125 -15.34375 C 23.082031 -14.75 23.929688 -13.925781 24.578125 -12.875 C 25.222656 -11.832031 25.546875 -10.457031 25.546875 -8.75 C 25.546875 -6.820312 25.054688 -5.144531 24.078125 -3.71875 C 23.109375 -2.289062 21.734375 -1.179688 19.953125 -0.390625 C 18.171875 0.390625 16.09375 0.78125 13.71875 0.78125 Z M 13.71875 0.78125 "/></g></g></g><g fill="#000000" fill-opacity="1"><g transform="translate(187.726237, 117.865394)"><g><path d="M 15.125 -18.8125 L 15.125 -15.015625 L 9.890625 -15.015625 L 9.890625 0 L 5.8125 0 L 5.8125 -15.015625 L 0.59375 -15.015625 L 0.59375 -18.8125 Z M 15.125 -18.8125 "/></g></g></g><g fill="#000000" fill-opacity="1"><g transform="translate(203.418947, 117.865394)"><g><path d="M 1.875 0 L 1.875 -19.75 L 5.8125 -19.75 L 5.8125 0 Z M 1.875 0 "/></g></g></g><g fill="#000000" fill-opacity="1"><g transform="translate(211.104078, 117.865394)"><g><path d="M 13.734375 -14.546875 L 16.65625 -14.546875 L 16.65625 -0.03125 L 13.578125 -0.03125 L 13.25 -1.3125 C 12.625 -0.78125 11.910156 -0.359375 11.109375 -0.046875 C 10.316406 0.253906 9.460938 0.40625 8.546875 0.40625 C 7.097656 0.40625 5.796875 0.0703125 4.640625 -0.59375 C 3.492188 -1.269531 2.585938 -2.1875 1.921875 -3.34375 C 1.265625 -4.5 0.9375 -5.8125 0.9375 -7.28125 C 0.9375 -8.726562 1.265625 -10.03125 1.921875 -11.1875 C 2.585938 -12.34375 3.492188 -13.253906 4.640625 -13.921875 C 5.796875 -14.585938 7.097656 -14.921875 8.546875 -14.921875 C 9.472656 -14.921875 10.335938 -14.757812 11.140625 -14.4375 C 11.953125 -14.125 12.671875 -13.691406 13.296875 -13.140625 Z M 8.875 -3.3125 C 9.625 -3.3125 10.296875 -3.476562 10.890625 -3.8125 C 11.492188 -4.15625 11.960938 -4.625 12.296875 -5.21875 C 12.640625 -5.820312 12.8125 -6.507812 12.8125 -7.28125 C 12.8125 -8.03125 12.640625 -8.707031 12.296875 -9.3125 C 11.960938 -9.914062 11.492188 -10.390625 10.890625 -10.734375 C 10.296875 -11.085938 9.625 -11.265625 8.875 -11.265625 C 8.101562 -11.265625 7.421875 -11.085938 6.828125 -10.734375 C 6.234375 -10.390625 5.765625 -9.914062 5.421875 -9.3125 C 5.085938 -8.707031 4.921875 -8.03125 4.921875 -7.28125 C 4.921875 -6.507812 5.085938 -5.828125 5.421875 -5.234375 C 5.765625 -4.648438 6.234375 -4.179688 6.828125 -3.828125 C 7.421875 -3.484375 8.101562 -3.3125 8.875 -3.3125 Z M 8.875 -3.3125 "/></g></g></g><g fill="#000000" fill-opacity="1"><g transform="translate(229.64513, 117.865394)"><g><path d="M 10.1875 -14.859375 C 11.832031 -14.859375 13.128906 -14.3125 14.078125 -13.21875 C 15.023438 -12.125 15.5 -10.65625 15.5 -8.8125 L 15.5 0 L 11.578125 0 L 11.578125 -8.171875 C 11.578125 -9.242188 11.378906 -10.050781 10.984375 -10.59375 C 10.597656 -11.144531 9.957031 -11.421875 9.0625 -11.421875 C 8.09375 -11.421875 7.304688 -11.082031 6.703125 -10.40625 C 6.109375 -9.738281 5.8125 -8.8125 5.8125 -7.625 L 5.8125 0 L 1.875 0 L 1.875 -19.75 L 5.8125 -19.75 L 5.8125 -13.171875 C 6.363281 -13.691406 7.015625 -14.101562 7.765625 -14.40625 C 8.515625 -14.707031 9.320312 -14.859375 10.1875 -14.859375 Z M 10.1875 -14.859375 "/></g></g></g><g fill="#000000" fill-opacity="1"><g transform="translate(246.869494, 117.865394)"><g><path d="M 8.515625 0.40625 C 7.160156 0.40625 5.96875 0.132812 4.9375 -0.40625 C 3.90625 -0.957031 3.101562 -1.722656 2.53125 -2.703125 C 1.96875 -3.679688 1.6875 -4.820312 1.6875 -6.125 L 1.6875 -14.515625 L 5.609375 -14.515625 L 5.609375 -6.578125 C 5.609375 -5.546875 5.863281 -4.738281 6.375 -4.15625 C 6.894531 -3.570312 7.609375 -3.28125 8.515625 -3.28125 C 9.429688 -3.28125 10.140625 -3.570312 10.640625 -4.15625 C 11.140625 -4.75 11.390625 -5.554688 11.390625 -6.578125 L 11.390625 -14.515625 L 15.3125 -14.515625 L 15.3125 -6.125 C 15.3125 -4.820312 15.03125 -3.679688 14.46875 -2.703125 C 13.90625 -1.722656 13.113281 -0.957031 12.09375 -0.40625 C 11.070312 0.132812 9.878906 0.40625 8.515625 0.40625 Z M 8.515625 0.40625 "/></g></g></g><g fill="#000000" fill-opacity="1"><g transform="translate(263.878893, 117.865394)"><g><path d="M 15.96875 -7.3125 C 15.96875 -6.9375 15.941406 -6.550781 15.890625 -6.15625 L 4.921875 -6.15625 C 5.078125 -5.164062 5.46875 -4.40625 6.09375 -3.875 C 6.726562 -3.351562 7.519531 -3.09375 8.46875 -3.09375 C 9.144531 -3.09375 9.75 -3.238281 10.28125 -3.53125 C 10.820312 -3.832031 11.238281 -4.238281 11.53125 -4.75 L 15.671875 -4.75 C 15.128906 -3.175781 14.210938 -1.921875 12.921875 -0.984375 C 11.628906 -0.0546875 10.144531 0.40625 8.46875 0.40625 C 7.03125 0.40625 5.742188 0.0703125 4.609375 -0.59375 C 3.472656 -1.269531 2.578125 -2.1875 1.921875 -3.34375 C 1.265625 -4.5 0.9375 -5.800781 0.9375 -7.25 C 0.9375 -8.707031 1.265625 -10.015625 1.921875 -11.171875 C 2.578125 -12.328125 3.472656 -13.238281 4.609375 -13.90625 C 5.742188 -14.582031 7.03125 -14.921875 8.46875 -14.921875 C 9.957031 -14.921875 11.265625 -14.570312 12.390625 -13.875 C 13.515625 -13.1875 14.390625 -12.269531 15.015625 -11.125 C 15.648438 -9.976562 15.96875 -8.707031 15.96875 -7.3125 Z M 8.46875 -11.578125 C 7.59375 -11.578125 6.851562 -11.332031 6.25 -10.84375 C 5.644531 -10.363281 5.238281 -9.695312 5.03125 -8.84375 L 12.046875 -8.84375 C 11.472656 -10.664062 10.28125 -11.578125 8.46875 -11.578125 Z M 8.46875 -11.578125 "/></g></g></g></svg>